<svg xmlns="http://www.w3.org/2000/svg" viewBox="0 0 512 512">
  <defs>
    <linearGradient id="leafGradient" x1="0%" y1="0%" x2="100%" y2="100%">
      <stop offset="0%" style="stop-color:#22c55e;stop-opacity:1" />
      <stop offset="100%" style="stop-color:#16a34a;stop-opacity:1" />
    </linearGradient>
  </defs>
  
  <!-- Background -->
  <rect width="512" height="512" rx="80" fill="url(#leafGradient)"/>
  
  <!-- Main leaf -->
  <path d="M 256 120 Q 330 160, 330 256 Q 330 352, 256 392 Q 182 352, 182 256 Q 182 160, 256 120 Z" 
        fill="white" opacity="0.95"/>
  
  <!-- Leaf vein -->
  <path d="M 256 140 L 256 372" stroke="url(#leafGradient)" stroke-width="12" stroke-linecap="round"/>
  
  <!-- Side veins -->
  <path d="M 256 200 Q 280 210, 300 230" stroke="url(#leafGradient)" stroke-width="6" stroke-linecap="round" opacity="0.7"/>
  <path d="M 256 200 Q 232 210, 212 230" stroke="url(#leafGradient)" stroke-width="6" stroke-linecap="round" opacity="0.7"/>
  <path d="M 256 280 Q 280 290, 300 310" stroke="url(#leafGradient)" stroke-width="6" stroke-linecap="round" opacity="0.7"/>
  <path d="M 256 280 Q 232 290, 212 310" stroke="url(#leafGradient)" stroke-width="6" stroke-linecap="round" opacity="0.7"/>
  
  <!-- Tech circuit elements -->
  <circle cx="220" cy="230" r="8" fill="#22c55e" opacity="0.5"/>
  <circle cx="292" cy="230" r="8" fill="#22c55e" opacity="0.5"/>
  <circle cx="220" cy="282" r="8" fill="#22c55e" opacity="0.5"/>
  <circle cx="292" cy="282" r="8" fill="#22c55e" opacity="0.5"/>
  
  <!-- Connection lines -->
  <line x1="220" y1="230" x2="256" y2="256" stroke="#22c55e" stroke-width="3" opacity="0.3"/>
  <line x1="292" y1="230" x2="256" y2="256" stroke="#22c55e" stroke-width="3" opacity="0.3"/>
  <line x1="220" y1="282" x2="256" y2="256" stroke="#22c55e" stroke-width="3" opacity="0.3"/>
  <line x1="292" y1="282" x2="256" y2="256" stroke="#22c55e" stroke-width="3" opacity="0.3"/>
</svg>
